<mxfile host="Electron" agent="Mozilla/5.0 (Windows NT 10.0; Win64; x64) AppleWebKit/537.36 (KHTML, like Gecko) draw.io/26.0.4 Chrome/128.0.6613.186 Electron/32.2.5 Safari/537.36" version="26.0.4" pages="4">
  <diagram id="wHZ60JcsDT5iw3yuF_J5" name="Breakdown">
    <mxGraphModel dx="989" dy="577" grid="1" gridSize="10" guides="1" tooltips="1" connect="1" arrows="1" fold="1" page="1" pageScale="1" pageWidth="1600" pageHeight="1200" math="0" shadow="0">
      <root>
        <mxCell id="0" />
        <mxCell id="1" parent="0" />
        <mxCell id="SZ8F1P2_yd5r5IUYRV-f-22" style="edgeStyle=orthogonalEdgeStyle;rounded=0;orthogonalLoop=1;jettySize=auto;html=1;exitX=0.5;exitY=1;exitDx=0;exitDy=0;entryX=0.5;entryY=0;entryDx=0;entryDy=0;" edge="1" parent="1" source="SZ8F1P2_yd5r5IUYRV-f-1" target="SZ8F1P2_yd5r5IUYRV-f-2">
          <mxGeometry relative="1" as="geometry" />
        </mxCell>
        <mxCell id="SZ8F1P2_yd5r5IUYRV-f-23" style="edgeStyle=orthogonalEdgeStyle;rounded=0;orthogonalLoop=1;jettySize=auto;html=1;exitX=0.5;exitY=1;exitDx=0;exitDy=0;entryX=0.5;entryY=0;entryDx=0;entryDy=0;" edge="1" parent="1" source="SZ8F1P2_yd5r5IUYRV-f-1" target="SZ8F1P2_yd5r5IUYRV-f-3">
          <mxGeometry relative="1" as="geometry" />
        </mxCell>
        <mxCell id="SZ8F1P2_yd5r5IUYRV-f-1" value="&lt;font style=&quot;font-size: 18px;&quot;&gt;調頻呼吸燈&lt;/font&gt;" style="rounded=0;whiteSpace=wrap;html=1;" vertex="1" parent="1">
          <mxGeometry x="600" y="200" width="120" height="60" as="geometry" />
        </mxCell>
        <mxCell id="SZ8F1P2_yd5r5IUYRV-f-20" style="edgeStyle=orthogonalEdgeStyle;rounded=0;orthogonalLoop=1;jettySize=auto;html=1;exitX=0.5;exitY=1;exitDx=0;exitDy=0;entryX=0.5;entryY=0;entryDx=0;entryDy=0;" edge="1" parent="1" source="SZ8F1P2_yd5r5IUYRV-f-2" target="SZ8F1P2_yd5r5IUYRV-f-6">
          <mxGeometry relative="1" as="geometry" />
        </mxCell>
        <mxCell id="SZ8F1P2_yd5r5IUYRV-f-21" style="edgeStyle=orthogonalEdgeStyle;rounded=0;orthogonalLoop=1;jettySize=auto;html=1;exitX=0.5;exitY=1;exitDx=0;exitDy=0;entryX=0.5;entryY=0;entryDx=0;entryDy=0;" edge="1" parent="1" source="SZ8F1P2_yd5r5IUYRV-f-2" target="SZ8F1P2_yd5r5IUYRV-f-7">
          <mxGeometry relative="1" as="geometry" />
        </mxCell>
        <mxCell id="SZ8F1P2_yd5r5IUYRV-f-2" value="&lt;font style=&quot;font-size: 18px;&quot;&gt;duty_cycle&lt;/font&gt;" style="rounded=0;whiteSpace=wrap;html=1;" vertex="1" parent="1">
          <mxGeometry x="400" y="310" width="120" height="60" as="geometry" />
        </mxCell>
        <mxCell id="SZ8F1P2_yd5r5IUYRV-f-18" style="edgeStyle=orthogonalEdgeStyle;rounded=0;orthogonalLoop=1;jettySize=auto;html=1;exitX=0.5;exitY=1;exitDx=0;exitDy=0;entryX=0.5;entryY=0;entryDx=0;entryDy=0;" edge="1" parent="1" source="SZ8F1P2_yd5r5IUYRV-f-3" target="SZ8F1P2_yd5r5IUYRV-f-4">
          <mxGeometry relative="1" as="geometry" />
        </mxCell>
        <mxCell id="SZ8F1P2_yd5r5IUYRV-f-19" style="edgeStyle=orthogonalEdgeStyle;rounded=0;orthogonalLoop=1;jettySize=auto;html=1;exitX=0.5;exitY=1;exitDx=0;exitDy=0;entryX=0.5;entryY=0;entryDx=0;entryDy=0;" edge="1" parent="1" source="SZ8F1P2_yd5r5IUYRV-f-3" target="SZ8F1P2_yd5r5IUYRV-f-5">
          <mxGeometry relative="1" as="geometry" />
        </mxCell>
        <mxCell id="SZ8F1P2_yd5r5IUYRV-f-3" value="&lt;font style=&quot;font-size: 18px;&quot;&gt;PWM&lt;/font&gt;" style="rounded=0;whiteSpace=wrap;html=1;" vertex="1" parent="1">
          <mxGeometry x="800" y="310" width="120" height="60" as="geometry" />
        </mxCell>
        <mxCell id="SZ8F1P2_yd5r5IUYRV-f-4" value="&lt;font style=&quot;font-size: 18px;&quot;&gt;PWM_counter&lt;/font&gt;" style="rounded=0;whiteSpace=wrap;html=1;" vertex="1" parent="1">
          <mxGeometry x="720" y="440" width="120" height="60" as="geometry" />
        </mxCell>
        <mxCell id="SZ8F1P2_yd5r5IUYRV-f-15" style="edgeStyle=orthogonalEdgeStyle;rounded=0;orthogonalLoop=1;jettySize=auto;html=1;exitX=0.5;exitY=1;exitDx=0;exitDy=0;entryX=0.5;entryY=0;entryDx=0;entryDy=0;" edge="1" parent="1" source="SZ8F1P2_yd5r5IUYRV-f-5" target="SZ8F1P2_yd5r5IUYRV-f-12">
          <mxGeometry relative="1" as="geometry" />
        </mxCell>
        <mxCell id="SZ8F1P2_yd5r5IUYRV-f-16" style="edgeStyle=orthogonalEdgeStyle;rounded=0;orthogonalLoop=1;jettySize=auto;html=1;exitX=0.5;exitY=1;exitDx=0;exitDy=0;entryX=0.5;entryY=0;entryDx=0;entryDy=0;" edge="1" parent="1" source="SZ8F1P2_yd5r5IUYRV-f-5" target="SZ8F1P2_yd5r5IUYRV-f-10">
          <mxGeometry relative="1" as="geometry" />
        </mxCell>
        <mxCell id="SZ8F1P2_yd5r5IUYRV-f-17" style="edgeStyle=orthogonalEdgeStyle;rounded=0;orthogonalLoop=1;jettySize=auto;html=1;exitX=0.5;exitY=1;exitDx=0;exitDy=0;entryX=0.5;entryY=0;entryDx=0;entryDy=0;" edge="1" parent="1" source="SZ8F1P2_yd5r5IUYRV-f-5" target="SZ8F1P2_yd5r5IUYRV-f-11">
          <mxGeometry relative="1" as="geometry" />
        </mxCell>
        <mxCell id="SZ8F1P2_yd5r5IUYRV-f-5" value="&lt;font style=&quot;font-size: 18px;&quot;&gt;輪流計數&lt;/font&gt;" style="rounded=0;whiteSpace=wrap;html=1;" vertex="1" parent="1">
          <mxGeometry x="880" y="440" width="120" height="60" as="geometry" />
        </mxCell>
        <mxCell id="SZ8F1P2_yd5r5IUYRV-f-6" value="&lt;font style=&quot;font-size: 18px;&quot;&gt;呼吸頻率調節&lt;/font&gt;" style="rounded=0;whiteSpace=wrap;html=1;" vertex="1" parent="1">
          <mxGeometry x="320" y="440" width="120" height="60" as="geometry" />
        </mxCell>
        <mxCell id="SZ8F1P2_yd5r5IUYRV-f-13" style="edgeStyle=orthogonalEdgeStyle;rounded=0;orthogonalLoop=1;jettySize=auto;html=1;exitX=0.5;exitY=1;exitDx=0;exitDy=0;entryX=0.5;entryY=0;entryDx=0;entryDy=0;" edge="1" parent="1" source="SZ8F1P2_yd5r5IUYRV-f-7" target="SZ8F1P2_yd5r5IUYRV-f-8">
          <mxGeometry relative="1" as="geometry" />
        </mxCell>
        <mxCell id="SZ8F1P2_yd5r5IUYRV-f-14" style="edgeStyle=orthogonalEdgeStyle;rounded=0;orthogonalLoop=1;jettySize=auto;html=1;exitX=0.5;exitY=1;exitDx=0;exitDy=0;entryX=0.5;entryY=0;entryDx=0;entryDy=0;" edge="1" parent="1" source="SZ8F1P2_yd5r5IUYRV-f-7" target="SZ8F1P2_yd5r5IUYRV-f-9">
          <mxGeometry relative="1" as="geometry" />
        </mxCell>
        <mxCell id="SZ8F1P2_yd5r5IUYRV-f-7" value="&lt;font style=&quot;font-size: 18px;&quot;&gt;調變&lt;/font&gt;" style="rounded=0;whiteSpace=wrap;html=1;" vertex="1" parent="1">
          <mxGeometry x="480" y="440" width="120" height="60" as="geometry" />
        </mxCell>
        <mxCell id="SZ8F1P2_yd5r5IUYRV-f-8" value="&lt;font style=&quot;font-size: 18px;&quot;&gt;upbnd1&lt;/font&gt;" style="rounded=0;whiteSpace=wrap;html=1;" vertex="1" parent="1">
          <mxGeometry x="400" y="560" width="120" height="60" as="geometry" />
        </mxCell>
        <mxCell id="SZ8F1P2_yd5r5IUYRV-f-9" value="&lt;font style=&quot;font-size: 18px;&quot;&gt;upbnd2&lt;/font&gt;" style="rounded=0;whiteSpace=wrap;html=1;" vertex="1" parent="1">
          <mxGeometry x="560" y="560" width="120" height="60" as="geometry" />
        </mxCell>
        <mxCell id="SZ8F1P2_yd5r5IUYRV-f-10" value="&lt;font style=&quot;font-size: 18px;&quot;&gt;count1&lt;/font&gt;" style="rounded=0;whiteSpace=wrap;html=1;" vertex="1" parent="1">
          <mxGeometry x="720" y="560" width="120" height="60" as="geometry" />
        </mxCell>
        <mxCell id="SZ8F1P2_yd5r5IUYRV-f-11" value="&lt;font style=&quot;font-size: 18px;&quot;&gt;count2&lt;/font&gt;" style="rounded=0;whiteSpace=wrap;html=1;" vertex="1" parent="1">
          <mxGeometry x="1040" y="560" width="120" height="60" as="geometry" />
        </mxCell>
        <mxCell id="SZ8F1P2_yd5r5IUYRV-f-12" value="&lt;span style=&quot;font-size: 18px;&quot;&gt;FSM&lt;/span&gt;" style="rounded=0;whiteSpace=wrap;html=1;" vertex="1" parent="1">
          <mxGeometry x="880" y="560" width="120" height="60" as="geometry" />
        </mxCell>
      </root>
    </mxGraphModel>
  </diagram>
  <diagram id="c-3ppbOeBN0B0Eq6HmFm" name="AOV">
    <mxGraphModel dx="1195" dy="697" grid="1" gridSize="10" guides="1" tooltips="1" connect="1" arrows="1" fold="1" page="1" pageScale="1" pageWidth="1600" pageHeight="1200" math="0" shadow="0">
      <root>
        <mxCell id="0" />
        <mxCell id="1" parent="0" />
        <mxCell id="7S1CZrXY3C0U-LKlklEQ-1" value="&lt;font style=&quot;font-size: 18px;&quot;&gt;duty_cycle&lt;/font&gt;" style="text;html=1;align=center;verticalAlign=middle;resizable=0;points=[];autosize=1;strokeColor=none;fillColor=none;" vertex="1" parent="1">
          <mxGeometry x="345" y="173" width="110" height="40" as="geometry" />
        </mxCell>
        <mxCell id="7S1CZrXY3C0U-LKlklEQ-6" style="rounded=0;orthogonalLoop=1;jettySize=auto;html=1;exitX=1;exitY=0.5;exitDx=0;exitDy=0;entryX=0;entryY=0.5;entryDx=0;entryDy=0;endArrow=classic;endFill=1;" edge="1" parent="1" source="7S1CZrXY3C0U-LKlklEQ-2" target="7S1CZrXY3C0U-LKlklEQ-4">
          <mxGeometry relative="1" as="geometry" />
        </mxCell>
        <mxCell id="7S1CZrXY3C0U-LKlklEQ-7" style="rounded=0;orthogonalLoop=1;jettySize=auto;html=1;exitX=1;exitY=0.5;exitDx=0;exitDy=0;entryX=0;entryY=0.5;entryDx=0;entryDy=0;endArrow=classic;endFill=1;" edge="1" parent="1" source="7S1CZrXY3C0U-LKlklEQ-2" target="7S1CZrXY3C0U-LKlklEQ-5">
          <mxGeometry relative="1" as="geometry" />
        </mxCell>
        <mxCell id="7S1CZrXY3C0U-LKlklEQ-2" value="&lt;font style=&quot;font-size: 18px;&quot;&gt;start&lt;/font&gt;" style="rounded=0;whiteSpace=wrap;html=1;fillColor=none;strokeColor=none;" vertex="1" parent="1">
          <mxGeometry x="410" y="280" width="90" height="40" as="geometry" />
        </mxCell>
        <mxCell id="7S1CZrXY3C0U-LKlklEQ-3" value="&lt;font style=&quot;font-size: 18px;&quot;&gt;end&lt;/font&gt;" style="rounded=0;whiteSpace=wrap;html=1;fillColor=none;strokeColor=none;" vertex="1" parent="1">
          <mxGeometry x="730" y="280" width="90" height="40" as="geometry" />
        </mxCell>
        <mxCell id="7S1CZrXY3C0U-LKlklEQ-9" style="rounded=0;orthogonalLoop=1;jettySize=auto;html=1;exitX=1;exitY=0.5;exitDx=0;exitDy=0;entryX=0;entryY=0.5;entryDx=0;entryDy=0;endArrow=classic;endFill=1;" edge="1" parent="1" source="7S1CZrXY3C0U-LKlklEQ-4" target="7S1CZrXY3C0U-LKlklEQ-3">
          <mxGeometry relative="1" as="geometry" />
        </mxCell>
        <mxCell id="7S1CZrXY3C0U-LKlklEQ-4" value="&lt;font style=&quot;font-size: 18px;&quot;&gt;upbnd1&lt;/font&gt;" style="ellipse;whiteSpace=wrap;html=1;" vertex="1" parent="1">
          <mxGeometry x="580" y="210" width="70" height="70" as="geometry" />
        </mxCell>
        <mxCell id="7S1CZrXY3C0U-LKlklEQ-8" style="rounded=0;orthogonalLoop=1;jettySize=auto;html=1;exitX=1;exitY=0.5;exitDx=0;exitDy=0;entryX=0;entryY=0.5;entryDx=0;entryDy=0;endArrow=classic;endFill=1;" edge="1" parent="1" source="7S1CZrXY3C0U-LKlklEQ-5" target="7S1CZrXY3C0U-LKlklEQ-3">
          <mxGeometry relative="1" as="geometry" />
        </mxCell>
        <mxCell id="7S1CZrXY3C0U-LKlklEQ-5" value="&lt;font style=&quot;font-size: 18px;&quot;&gt;upbnd2&lt;/font&gt;" style="ellipse;whiteSpace=wrap;html=1;" vertex="1" parent="1">
          <mxGeometry x="580" y="330" width="70" height="70" as="geometry" />
        </mxCell>
        <mxCell id="7S1CZrXY3C0U-LKlklEQ-10" value="254 clk" style="text;html=1;align=center;verticalAlign=middle;resizable=0;points=[];autosize=1;strokeColor=none;fillColor=none;" vertex="1" parent="1">
          <mxGeometry x="680" y="250" width="60" height="30" as="geometry" />
        </mxCell>
        <mxCell id="7S1CZrXY3C0U-LKlklEQ-11" value="254 clk" style="text;html=1;align=center;verticalAlign=middle;resizable=0;points=[];autosize=1;strokeColor=none;fillColor=none;" vertex="1" parent="1">
          <mxGeometry x="680" y="330" width="60" height="30" as="geometry" />
        </mxCell>
        <mxCell id="7S1CZrXY3C0U-LKlklEQ-12" value="&lt;font style=&quot;font-size: 18px;&quot;&gt;PWM&lt;/font&gt;" style="text;html=1;align=center;verticalAlign=middle;resizable=0;points=[];autosize=1;strokeColor=none;fillColor=none;" vertex="1" parent="1">
          <mxGeometry x="365" y="480" width="70" height="40" as="geometry" />
        </mxCell>
        <mxCell id="7S1CZrXY3C0U-LKlklEQ-18" style="edgeStyle=orthogonalEdgeStyle;rounded=0;orthogonalLoop=1;jettySize=auto;html=1;exitX=1;exitY=0.5;exitDx=0;exitDy=0;entryX=0;entryY=0.5;entryDx=0;entryDy=0;" edge="1" parent="1" source="7S1CZrXY3C0U-LKlklEQ-13" target="7S1CZrXY3C0U-LKlklEQ-14">
          <mxGeometry relative="1" as="geometry" />
        </mxCell>
        <mxCell id="7S1CZrXY3C0U-LKlklEQ-13" value="&lt;span style=&quot;font-size: 18px;&quot;&gt;D&lt;/span&gt;" style="ellipse;whiteSpace=wrap;html=1;" vertex="1" parent="1">
          <mxGeometry x="410" y="565" width="70" height="70" as="geometry" />
        </mxCell>
        <mxCell id="7S1CZrXY3C0U-LKlklEQ-19" style="edgeStyle=orthogonalEdgeStyle;rounded=0;orthogonalLoop=1;jettySize=auto;html=1;exitX=1;exitY=0.5;exitDx=0;exitDy=0;entryX=0;entryY=0.5;entryDx=0;entryDy=0;" edge="1" parent="1" source="7S1CZrXY3C0U-LKlklEQ-14" target="7S1CZrXY3C0U-LKlklEQ-15">
          <mxGeometry relative="1" as="geometry" />
        </mxCell>
        <mxCell id="7S1CZrXY3C0U-LKlklEQ-14" value="&lt;span style=&quot;font-size: 18px;&quot;&gt;count1&lt;/span&gt;" style="ellipse;whiteSpace=wrap;html=1;" vertex="1" parent="1">
          <mxGeometry x="560" y="565" width="70" height="70" as="geometry" />
        </mxCell>
        <mxCell id="7S1CZrXY3C0U-LKlklEQ-20" style="edgeStyle=orthogonalEdgeStyle;rounded=0;orthogonalLoop=1;jettySize=auto;html=1;exitX=1;exitY=0.5;exitDx=0;exitDy=0;entryX=0;entryY=0.5;entryDx=0;entryDy=0;" edge="1" parent="1" source="7S1CZrXY3C0U-LKlklEQ-15" target="7S1CZrXY3C0U-LKlklEQ-16">
          <mxGeometry relative="1" as="geometry" />
        </mxCell>
        <mxCell id="7S1CZrXY3C0U-LKlklEQ-15" value="&lt;span style=&quot;font-size: 18px;&quot;&gt;count2&lt;/span&gt;" style="ellipse;whiteSpace=wrap;html=1;" vertex="1" parent="1">
          <mxGeometry x="720" y="565" width="70" height="70" as="geometry" />
        </mxCell>
        <mxCell id="7S1CZrXY3C0U-LKlklEQ-16" value="&lt;span style=&quot;font-size: 18px;&quot;&gt;PWM&lt;/span&gt;&lt;div&gt;&lt;span style=&quot;font-size: 18px;&quot;&gt;counter&lt;/span&gt;&lt;/div&gt;" style="ellipse;whiteSpace=wrap;html=1;" vertex="1" parent="1">
          <mxGeometry x="880" y="565" width="70" height="70" as="geometry" />
        </mxCell>
        <mxCell id="7S1CZrXY3C0U-LKlklEQ-21" value="1 clk" style="text;html=1;align=center;verticalAlign=middle;resizable=0;points=[];autosize=1;strokeColor=none;fillColor=none;" vertex="1" parent="1">
          <mxGeometry x="495" y="568" width="50" height="30" as="geometry" />
        </mxCell>
        <mxCell id="7S1CZrXY3C0U-LKlklEQ-22" value="upbnd1 個 clk" style="text;html=1;align=center;verticalAlign=middle;resizable=0;points=[];autosize=1;strokeColor=none;fillColor=none;" vertex="1" parent="1">
          <mxGeometry x="625" y="568" width="100" height="30" as="geometry" />
        </mxCell>
        <mxCell id="7S1CZrXY3C0U-LKlklEQ-23" value="upbnd2 個 clk" style="text;html=1;align=center;verticalAlign=middle;resizable=0;points=[];autosize=1;strokeColor=none;fillColor=none;" vertex="1" parent="1">
          <mxGeometry x="780" y="568" width="100" height="30" as="geometry" />
        </mxCell>
        <mxCell id="7S1CZrXY3C0U-LKlklEQ-24" value="&lt;ul&gt;&lt;li&gt;D：upbnd duty_cycle&lt;/li&gt;&lt;/ul&gt;" style="text;strokeColor=none;fillColor=none;html=1;whiteSpace=wrap;verticalAlign=middle;overflow=hidden;" vertex="1" parent="1">
          <mxGeometry x="400" y="670" width="290" height="80" as="geometry" />
        </mxCell>
        <mxCell id="7S1CZrXY3C0U-LKlklEQ-25" style="rounded=0;orthogonalLoop=1;jettySize=auto;html=1;exitX=1;exitY=0.5;exitDx=0;exitDy=0;entryX=0;entryY=0.5;entryDx=0;entryDy=0;endArrow=classic;endFill=1;" edge="1" parent="1" source="7S1CZrXY3C0U-LKlklEQ-27" target="7S1CZrXY3C0U-LKlklEQ-30">
          <mxGeometry relative="1" as="geometry" />
        </mxCell>
        <mxCell id="7S1CZrXY3C0U-LKlklEQ-26" style="rounded=0;orthogonalLoop=1;jettySize=auto;html=1;exitX=1;exitY=0.5;exitDx=0;exitDy=0;entryX=0;entryY=0.5;entryDx=0;entryDy=0;endArrow=classic;endFill=1;" edge="1" parent="1" source="7S1CZrXY3C0U-LKlklEQ-27" target="7S1CZrXY3C0U-LKlklEQ-32">
          <mxGeometry relative="1" as="geometry" />
        </mxCell>
        <mxCell id="7S1CZrXY3C0U-LKlklEQ-27" value="&lt;font style=&quot;font-size: 18px;&quot;&gt;start&lt;/font&gt;" style="rounded=0;whiteSpace=wrap;html=1;fillColor=none;strokeColor=none;" vertex="1" parent="1">
          <mxGeometry x="410" y="940" width="90" height="40" as="geometry" />
        </mxCell>
        <mxCell id="7S1CZrXY3C0U-LKlklEQ-28" value="&lt;font style=&quot;font-size: 18px;&quot;&gt;end&lt;/font&gt;" style="rounded=0;whiteSpace=wrap;html=1;fillColor=none;strokeColor=none;" vertex="1" parent="1">
          <mxGeometry x="730" y="940" width="90" height="40" as="geometry" />
        </mxCell>
        <mxCell id="7S1CZrXY3C0U-LKlklEQ-29" style="rounded=0;orthogonalLoop=1;jettySize=auto;html=1;exitX=1;exitY=0.5;exitDx=0;exitDy=0;entryX=0;entryY=0.5;entryDx=0;entryDy=0;endArrow=classic;endFill=1;" edge="1" parent="1" source="7S1CZrXY3C0U-LKlklEQ-30" target="7S1CZrXY3C0U-LKlklEQ-28">
          <mxGeometry relative="1" as="geometry" />
        </mxCell>
        <mxCell id="7S1CZrXY3C0U-LKlklEQ-30" value="&lt;font style=&quot;font-size: 18px;&quot;&gt;duty&lt;/font&gt;&lt;div&gt;&lt;font style=&quot;font-size: 18px;&quot;&gt;cycle&lt;/font&gt;&lt;/div&gt;" style="ellipse;whiteSpace=wrap;html=1;" vertex="1" parent="1">
          <mxGeometry x="580" y="870" width="70" height="70" as="geometry" />
        </mxCell>
        <mxCell id="7S1CZrXY3C0U-LKlklEQ-31" style="rounded=0;orthogonalLoop=1;jettySize=auto;html=1;exitX=1;exitY=0.5;exitDx=0;exitDy=0;entryX=0;entryY=0.5;entryDx=0;entryDy=0;endArrow=classic;endFill=1;" edge="1" parent="1" source="7S1CZrXY3C0U-LKlklEQ-32" target="7S1CZrXY3C0U-LKlklEQ-28">
          <mxGeometry relative="1" as="geometry" />
        </mxCell>
        <mxCell id="7S1CZrXY3C0U-LKlklEQ-32" value="&lt;font style=&quot;font-size: 18px;&quot;&gt;PWM&lt;/font&gt;" style="ellipse;whiteSpace=wrap;html=1;" vertex="1" parent="1">
          <mxGeometry x="580" y="990" width="70" height="70" as="geometry" />
        </mxCell>
        <mxCell id="7S1CZrXY3C0U-LKlklEQ-33" value="508clk" style="text;html=1;align=center;verticalAlign=middle;resizable=0;points=[];autosize=1;strokeColor=none;fillColor=none;" vertex="1" parent="1">
          <mxGeometry x="680" y="910" width="60" height="30" as="geometry" />
        </mxCell>
        <mxCell id="7S1CZrXY3C0U-LKlklEQ-34" value="D+1個 clk" style="text;html=1;align=center;verticalAlign=middle;resizable=0;points=[];autosize=1;strokeColor=none;fillColor=none;" vertex="1" parent="1">
          <mxGeometry x="670" y="990" width="80" height="30" as="geometry" />
        </mxCell>
      </root>
    </mxGraphModel>
  </diagram>
  <diagram name="MSC" id="onQRlJYT54fZmL11PY4W">
    <mxGraphModel dx="1050" dy="669" grid="1" gridSize="10" guides="1" tooltips="1" connect="1" arrows="1" fold="1" page="1" pageScale="1" pageWidth="1600" pageHeight="1200" math="0" shadow="0">
      <root>
        <mxCell id="0" />
        <mxCell id="1" parent="0" />
        <mxCell id="iz8gX8LK1YqTojEXuOUY-8" style="edgeStyle=orthogonalEdgeStyle;rounded=0;orthogonalLoop=1;jettySize=auto;html=1;exitX=1;exitY=0.5;exitDx=0;exitDy=0;endArrow=none;endFill=0;dashed=1;strokeColor=#999999;" edge="1" parent="1" source="iz8gX8LK1YqTojEXuOUY-1">
          <mxGeometry relative="1" as="geometry">
            <mxPoint x="1050" y="260" as="targetPoint" />
          </mxGeometry>
        </mxCell>
        <mxCell id="iz8gX8LK1YqTojEXuOUY-1" value="&lt;font style=&quot;font-size: 18px;&quot;&gt;調變&lt;/font&gt;" style="rounded=0;whiteSpace=wrap;html=1;strokeColor=none;fillColor=none;" vertex="1" parent="1">
          <mxGeometry x="130" y="240" width="100" height="40" as="geometry" />
        </mxCell>
        <mxCell id="iz8gX8LK1YqTojEXuOUY-9" style="edgeStyle=orthogonalEdgeStyle;rounded=0;orthogonalLoop=1;jettySize=auto;html=1;exitX=1;exitY=0.5;exitDx=0;exitDy=0;endArrow=none;endFill=0;dashed=1;strokeColor=#999999;" edge="1" parent="1" source="iz8gX8LK1YqTojEXuOUY-2">
          <mxGeometry relative="1" as="geometry">
            <mxPoint x="1050" y="420" as="targetPoint" />
          </mxGeometry>
        </mxCell>
        <mxCell id="iz8gX8LK1YqTojEXuOUY-2" value="&lt;span style=&quot;font-size: 18px;&quot;&gt;upbnd1&lt;/span&gt;" style="rounded=0;whiteSpace=wrap;html=1;strokeColor=none;fillColor=none;" vertex="1" parent="1">
          <mxGeometry x="130" y="400" width="100" height="40" as="geometry" />
        </mxCell>
        <mxCell id="iz8gX8LK1YqTojEXuOUY-10" style="edgeStyle=orthogonalEdgeStyle;rounded=0;orthogonalLoop=1;jettySize=auto;html=1;exitX=1;exitY=0.5;exitDx=0;exitDy=0;endArrow=none;endFill=0;dashed=1;strokeColor=#999999;" edge="1" parent="1">
          <mxGeometry relative="1" as="geometry">
            <mxPoint x="1050" y="500" as="targetPoint" />
            <mxPoint x="230" y="500" as="sourcePoint" />
          </mxGeometry>
        </mxCell>
        <mxCell id="iz8gX8LK1YqTojEXuOUY-3" value="&lt;span style=&quot;font-size: 18px;&quot;&gt;upbnd2&lt;/span&gt;" style="rounded=0;whiteSpace=wrap;html=1;strokeColor=none;fillColor=none;" vertex="1" parent="1">
          <mxGeometry x="120" y="480" width="100" height="40" as="geometry" />
        </mxCell>
        <mxCell id="iz8gX8LK1YqTojEXuOUY-11" style="edgeStyle=orthogonalEdgeStyle;rounded=0;orthogonalLoop=1;jettySize=auto;html=1;exitX=1;exitY=0.5;exitDx=0;exitDy=0;endArrow=none;endFill=0;dashed=1;strokeColor=#999999;" edge="1" parent="1" source="iz8gX8LK1YqTojEXuOUY-4">
          <mxGeometry relative="1" as="geometry">
            <mxPoint x="1050" y="340" as="targetPoint" />
          </mxGeometry>
        </mxCell>
        <mxCell id="iz8gX8LK1YqTojEXuOUY-4" value="&lt;span style=&quot;font-size: 18px;&quot;&gt;PWM_counter&lt;/span&gt;" style="rounded=0;whiteSpace=wrap;html=1;strokeColor=none;fillColor=none;" vertex="1" parent="1">
          <mxGeometry x="110" y="320" width="120" height="40" as="geometry" />
        </mxCell>
        <mxCell id="iz8gX8LK1YqTojEXuOUY-12" style="edgeStyle=orthogonalEdgeStyle;rounded=0;orthogonalLoop=1;jettySize=auto;html=1;exitX=1;exitY=0.5;exitDx=0;exitDy=0;endArrow=none;endFill=0;dashed=1;strokeColor=#999999;" edge="1" parent="1" source="iz8gX8LK1YqTojEXuOUY-15">
          <mxGeometry relative="1" as="geometry">
            <mxPoint x="1050" y="580" as="targetPoint" />
          </mxGeometry>
        </mxCell>
        <mxCell id="iz8gX8LK1YqTojEXuOUY-5" value="&lt;span style=&quot;font-size: 18px;&quot;&gt;FSM_state&lt;/span&gt;" style="rounded=0;whiteSpace=wrap;html=1;strokeColor=none;fillColor=none;" vertex="1" parent="1">
          <mxGeometry x="110" y="560" width="120" height="40" as="geometry" />
        </mxCell>
        <mxCell id="iz8gX8LK1YqTojEXuOUY-13" style="edgeStyle=orthogonalEdgeStyle;rounded=0;orthogonalLoop=1;jettySize=auto;html=1;endArrow=none;endFill=0;dashed=1;strokeColor=#999999;" edge="1" parent="1" source="iz8gX8LK1YqTojEXuOUY-6">
          <mxGeometry relative="1" as="geometry">
            <mxPoint x="1050" y="660" as="targetPoint" />
          </mxGeometry>
        </mxCell>
        <mxCell id="iz8gX8LK1YqTojEXuOUY-6" value="&lt;span style=&quot;font-size: 18px;&quot;&gt;counter1&lt;/span&gt;" style="rounded=0;whiteSpace=wrap;html=1;strokeColor=none;fillColor=none;" vertex="1" parent="1">
          <mxGeometry x="110" y="640" width="120" height="40" as="geometry" />
        </mxCell>
        <mxCell id="iz8gX8LK1YqTojEXuOUY-14" style="edgeStyle=orthogonalEdgeStyle;rounded=0;orthogonalLoop=1;jettySize=auto;html=1;exitX=1;exitY=0.5;exitDx=0;exitDy=0;endArrow=none;endFill=0;dashed=1;strokeColor=#999999;" edge="1" parent="1" source="iz8gX8LK1YqTojEXuOUY-7">
          <mxGeometry relative="1" as="geometry">
            <mxPoint x="1050" y="740" as="targetPoint" />
          </mxGeometry>
        </mxCell>
        <mxCell id="iz8gX8LK1YqTojEXuOUY-7" value="&lt;span style=&quot;font-size: 18px;&quot;&gt;counter2&lt;/span&gt;" style="rounded=0;whiteSpace=wrap;html=1;strokeColor=none;fillColor=none;" vertex="1" parent="1">
          <mxGeometry x="110" y="720" width="120" height="40" as="geometry" />
        </mxCell>
        <mxCell id="iz8gX8LK1YqTojEXuOUY-16" value="" style="edgeStyle=orthogonalEdgeStyle;rounded=0;orthogonalLoop=1;jettySize=auto;html=1;exitX=1;exitY=0.5;exitDx=0;exitDy=0;endArrow=none;endFill=0;dashed=1;strokeColor=#999999;" edge="1" parent="1" source="iz8gX8LK1YqTojEXuOUY-5" target="iz8gX8LK1YqTojEXuOUY-15">
          <mxGeometry relative="1" as="geometry">
            <mxPoint x="1050" y="580" as="targetPoint" />
            <mxPoint x="230" y="580" as="sourcePoint" />
          </mxGeometry>
        </mxCell>
        <mxCell id="iz8gX8LK1YqTojEXuOUY-15" value="&lt;font style=&quot;font-size: 18px;&quot;&gt;state0&lt;/font&gt;" style="rounded=0;whiteSpace=wrap;html=1;" vertex="1" parent="1">
          <mxGeometry x="240" y="560" width="100" height="40" as="geometry" />
        </mxCell>
      </root>
    </mxGraphModel>
  </diagram>
  <diagram id="GMl1EXt9sEo4Ja7MHfG4" name="架構圖">
    <mxGraphModel dx="1195" dy="697" grid="1" gridSize="10" guides="1" tooltips="1" connect="1" arrows="1" fold="1" page="1" pageScale="1" pageWidth="1600" pageHeight="1200" math="0" shadow="0">
      <root>
        <mxCell id="0" />
        <mxCell id="1" parent="0" />
        <mxCell id="TRarGVnxiNDaAWpDCJxS-8" style="edgeStyle=orthogonalEdgeStyle;rounded=0;orthogonalLoop=1;jettySize=auto;html=1;exitX=1;exitY=0.5;exitDx=0;exitDy=0;entryX=0;entryY=0.5;entryDx=0;entryDy=0;" edge="1" parent="1" source="bAxuqloQ2VQ-3lpvVDIQ-1" target="S6EbHysRrYr6XBWWv1BK-1">
          <mxGeometry relative="1" as="geometry" />
        </mxCell>
        <mxCell id="bAxuqloQ2VQ-3lpvVDIQ-1" value="&lt;font style=&quot;font-size: 18px;&quot;&gt;呼吸頻率調節&lt;/font&gt;" style="rounded=0;whiteSpace=wrap;html=1;" vertex="1" parent="1">
          <mxGeometry x="160" y="320" width="120" height="60" as="geometry" />
        </mxCell>
        <mxCell id="TRarGVnxiNDaAWpDCJxS-9" style="edgeStyle=orthogonalEdgeStyle;rounded=0;orthogonalLoop=1;jettySize=auto;html=1;exitX=1;exitY=0.5;exitDx=0;exitDy=0;entryX=0;entryY=0.5;entryDx=0;entryDy=0;" edge="1" parent="1" source="S6EbHysRrYr6XBWWv1BK-1" target="TRarGVnxiNDaAWpDCJxS-2">
          <mxGeometry relative="1" as="geometry" />
        </mxCell>
        <mxCell id="TRarGVnxiNDaAWpDCJxS-10" style="edgeStyle=orthogonalEdgeStyle;rounded=0;orthogonalLoop=1;jettySize=auto;html=1;exitDx=0;exitDy=0;entryX=0;entryY=0.5;entryDx=0;entryDy=0;" edge="1" parent="1" source="TRarGVnxiNDaAWpDCJxS-30" target="TRarGVnxiNDaAWpDCJxS-3">
          <mxGeometry relative="1" as="geometry">
            <Array as="points">
              <mxPoint x="520" y="467" />
            </Array>
          </mxGeometry>
        </mxCell>
        <mxCell id="S6EbHysRrYr6XBWWv1BK-1" value="&lt;font style=&quot;font-size: 18px;&quot;&gt;調變&lt;/font&gt;" style="rounded=0;whiteSpace=wrap;html=1;strokeColor=default;fillColor=default;gradientColor=none;" vertex="1" parent="1">
          <mxGeometry x="360" y="320" width="120" height="60" as="geometry" />
        </mxCell>
        <mxCell id="TRarGVnxiNDaAWpDCJxS-22" style="edgeStyle=orthogonalEdgeStyle;rounded=0;orthogonalLoop=1;jettySize=auto;html=1;exitX=0;exitY=0.5;exitDx=0;exitDy=0;entryX=0.25;entryY=1;entryDx=0;entryDy=0;" edge="1" parent="1" source="TRarGVnxiNDaAWpDCJxS-1" target="S6EbHysRrYr6XBWWv1BK-1">
          <mxGeometry relative="1" as="geometry" />
        </mxCell>
        <mxCell id="TRarGVnxiNDaAWpDCJxS-1" value="&lt;font style=&quot;font-size: 18px;&quot;&gt;PWM_counter&lt;/font&gt;" style="rounded=0;whiteSpace=wrap;html=1;" vertex="1" parent="1">
          <mxGeometry x="710" y="560" width="120" height="60" as="geometry" />
        </mxCell>
        <mxCell id="TRarGVnxiNDaAWpDCJxS-11" style="edgeStyle=orthogonalEdgeStyle;rounded=0;orthogonalLoop=1;jettySize=auto;html=1;exitX=1;exitY=0.5;exitDx=0;exitDy=0;entryX=0;entryY=0.25;entryDx=0;entryDy=0;" edge="1" parent="1" source="TRarGVnxiNDaAWpDCJxS-2" target="TRarGVnxiNDaAWpDCJxS-6">
          <mxGeometry relative="1" as="geometry">
            <Array as="points">
              <mxPoint x="740" y="250" />
              <mxPoint x="740" y="320" />
            </Array>
          </mxGeometry>
        </mxCell>
        <mxCell id="TRarGVnxiNDaAWpDCJxS-2" value="&lt;font style=&quot;font-size: 18px;&quot;&gt;upbnd1&lt;/font&gt;" style="rounded=0;whiteSpace=wrap;html=1;" vertex="1" parent="1">
          <mxGeometry x="560" y="220" width="120" height="60" as="geometry" />
        </mxCell>
        <mxCell id="TRarGVnxiNDaAWpDCJxS-12" style="edgeStyle=orthogonalEdgeStyle;rounded=0;orthogonalLoop=1;jettySize=auto;html=1;exitX=1;exitY=0.5;exitDx=0;exitDy=0;entryX=0;entryY=0.75;entryDx=0;entryDy=0;" edge="1" parent="1" source="TRarGVnxiNDaAWpDCJxS-3" target="TRarGVnxiNDaAWpDCJxS-6">
          <mxGeometry relative="1" as="geometry" />
        </mxCell>
        <mxCell id="TRarGVnxiNDaAWpDCJxS-3" value="&lt;font style=&quot;font-size: 18px;&quot;&gt;upbnd2&lt;/font&gt;" style="rounded=0;whiteSpace=wrap;html=1;" vertex="1" parent="1">
          <mxGeometry x="560" y="437.5" width="120" height="60" as="geometry" />
        </mxCell>
        <mxCell id="TRarGVnxiNDaAWpDCJxS-20" style="edgeStyle=orthogonalEdgeStyle;rounded=0;orthogonalLoop=1;jettySize=auto;html=1;exitX=1;exitY=0.5;exitDx=0;exitDy=0;" edge="1" parent="1" source="TRarGVnxiNDaAWpDCJxS-4" target="TRarGVnxiNDaAWpDCJxS-6">
          <mxGeometry relative="1" as="geometry">
            <mxPoint x="799.9999999999998" y="169.9999999999999" as="targetPoint" />
            <Array as="points">
              <mxPoint x="1160" y="250" />
              <mxPoint x="1160" y="180" />
              <mxPoint x="780" y="180" />
              <mxPoint x="780" y="300" />
            </Array>
          </mxGeometry>
        </mxCell>
        <mxCell id="TRarGVnxiNDaAWpDCJxS-4" value="&lt;font style=&quot;font-size: 18px;&quot;&gt;count1&lt;/font&gt;" style="rounded=0;whiteSpace=wrap;html=1;" vertex="1" parent="1">
          <mxGeometry x="1000" y="220" width="120" height="60" as="geometry" />
        </mxCell>
        <mxCell id="TRarGVnxiNDaAWpDCJxS-5" value="&lt;font style=&quot;font-size: 18px;&quot;&gt;count2&lt;/font&gt;" style="rounded=0;whiteSpace=wrap;html=1;" vertex="1" parent="1">
          <mxGeometry x="1000" y="437.5" width="120" height="60" as="geometry" />
        </mxCell>
        <mxCell id="TRarGVnxiNDaAWpDCJxS-18" style="edgeStyle=orthogonalEdgeStyle;rounded=0;orthogonalLoop=1;jettySize=auto;html=1;exitX=1;exitY=0.5;exitDx=0;exitDy=0;entryX=0;entryY=0.5;entryDx=0;entryDy=0;" edge="1" parent="1" source="TRarGVnxiNDaAWpDCJxS-6" target="TRarGVnxiNDaAWpDCJxS-4">
          <mxGeometry relative="1" as="geometry" />
        </mxCell>
        <mxCell id="TRarGVnxiNDaAWpDCJxS-19" style="edgeStyle=orthogonalEdgeStyle;rounded=0;orthogonalLoop=1;jettySize=auto;html=1;exitX=1;exitY=0.5;exitDx=0;exitDy=0;entryX=0;entryY=0.5;entryDx=0;entryDy=0;" edge="1" parent="1" source="TRarGVnxiNDaAWpDCJxS-6" target="TRarGVnxiNDaAWpDCJxS-5">
          <mxGeometry relative="1" as="geometry" />
        </mxCell>
        <mxCell id="TRarGVnxiNDaAWpDCJxS-6" value="&lt;span style=&quot;font-size: 18px;&quot;&gt;FSM&lt;/span&gt;" style="rounded=0;whiteSpace=wrap;html=1;" vertex="1" parent="1">
          <mxGeometry x="800" y="280" width="120" height="160" as="geometry" />
        </mxCell>
        <mxCell id="TRarGVnxiNDaAWpDCJxS-24" style="edgeStyle=orthogonalEdgeStyle;rounded=0;orthogonalLoop=1;jettySize=auto;html=1;exitX=0;exitY=0.5;exitDx=0;exitDy=0;endArrow=none;endFill=0;" edge="1" parent="1" source="TRarGVnxiNDaAWpDCJxS-7" target="TRarGVnxiNDaAWpDCJxS-23">
          <mxGeometry relative="1" as="geometry" />
        </mxCell>
        <mxCell id="TRarGVnxiNDaAWpDCJxS-7" value="" style="triangle;whiteSpace=wrap;html=1;rotation=-90;" vertex="1" parent="1">
          <mxGeometry x="847.5" y="402.5" width="25" height="50" as="geometry" />
        </mxCell>
        <mxCell id="TRarGVnxiNDaAWpDCJxS-14" value="" style="edgeStyle=none;orthogonalLoop=1;jettySize=auto;html=1;rounded=0;entryX=0.5;entryY=0;entryDx=0;entryDy=0;" edge="1" parent="1" target="S6EbHysRrYr6XBWWv1BK-1">
          <mxGeometry width="100" relative="1" as="geometry">
            <mxPoint x="740" y="250" as="sourcePoint" />
            <mxPoint x="740" y="140" as="targetPoint" />
            <Array as="points">
              <mxPoint x="740" y="200" />
              <mxPoint x="420" y="200" />
            </Array>
          </mxGeometry>
        </mxCell>
        <mxCell id="TRarGVnxiNDaAWpDCJxS-15" value="" style="shape=waypoint;sketch=0;size=6;pointerEvents=1;points=[];fillColor=none;resizable=0;rotatable=0;perimeter=centerPerimeter;snapToPoint=1;" vertex="1" parent="1">
          <mxGeometry x="730" y="240" width="20" height="20" as="geometry" />
        </mxCell>
        <mxCell id="TRarGVnxiNDaAWpDCJxS-17" style="edgeStyle=orthogonalEdgeStyle;rounded=0;orthogonalLoop=1;jettySize=auto;html=1;entryX=0.5;entryY=1;entryDx=0;entryDy=0;" edge="1" parent="1" source="TRarGVnxiNDaAWpDCJxS-16" target="S6EbHysRrYr6XBWWv1BK-1">
          <mxGeometry relative="1" as="geometry">
            <mxPoint x="739.9999999999998" y="511.25" as="sourcePoint" />
            <mxPoint x="420" y="423.7499999999999" as="targetPoint" />
            <Array as="points">
              <mxPoint x="740" y="520" />
              <mxPoint x="420" y="520" />
            </Array>
          </mxGeometry>
        </mxCell>
        <mxCell id="TRarGVnxiNDaAWpDCJxS-16" value="" style="shape=waypoint;sketch=0;size=6;pointerEvents=1;points=[];fillColor=none;resizable=0;rotatable=0;perimeter=centerPerimeter;snapToPoint=1;" vertex="1" parent="1">
          <mxGeometry x="730" y="457.5" width="20" height="20" as="geometry" />
        </mxCell>
        <mxCell id="TRarGVnxiNDaAWpDCJxS-21" style="edgeStyle=orthogonalEdgeStyle;rounded=0;orthogonalLoop=1;jettySize=auto;html=1;exitX=1;exitY=0.5;exitDx=0;exitDy=0;entryX=0;entryY=0.877;entryDx=0;entryDy=0;entryPerimeter=0;" edge="1" parent="1" source="TRarGVnxiNDaAWpDCJxS-5" target="TRarGVnxiNDaAWpDCJxS-6">
          <mxGeometry relative="1" as="geometry">
            <Array as="points">
              <mxPoint x="1160" y="467" />
              <mxPoint x="1160" y="520" />
              <mxPoint x="780" y="520" />
              <mxPoint x="780" y="420" />
            </Array>
          </mxGeometry>
        </mxCell>
        <mxCell id="TRarGVnxiNDaAWpDCJxS-23" value="&lt;font style=&quot;font-size: 18px;&quot;&gt;system_clk&lt;/font&gt;" style="text;html=1;align=center;verticalAlign=middle;resizable=0;points=[];autosize=1;strokeColor=none;fillColor=none;" vertex="1" parent="1">
          <mxGeometry x="805" y="470" width="110" height="40" as="geometry" />
        </mxCell>
        <mxCell id="TRarGVnxiNDaAWpDCJxS-26" style="edgeStyle=orthogonalEdgeStyle;rounded=0;orthogonalLoop=1;jettySize=auto;html=1;endArrow=none;endFill=0;startArrow=classic;startFill=1;" edge="1" parent="1" source="TRarGVnxiNDaAWpDCJxS-25">
          <mxGeometry relative="1" as="geometry">
            <mxPoint x="960" y="360" as="targetPoint" />
          </mxGeometry>
        </mxCell>
        <mxCell id="TRarGVnxiNDaAWpDCJxS-29" style="edgeStyle=orthogonalEdgeStyle;rounded=0;orthogonalLoop=1;jettySize=auto;html=1;entryX=1;entryY=0.5;entryDx=0;entryDy=0;" edge="1" parent="1" source="TRarGVnxiNDaAWpDCJxS-25" target="TRarGVnxiNDaAWpDCJxS-1">
          <mxGeometry relative="1" as="geometry">
            <mxPoint x="1230" y="680" as="targetPoint" />
            <Array as="points">
              <mxPoint x="1240" y="590" />
            </Array>
          </mxGeometry>
        </mxCell>
        <mxCell id="TRarGVnxiNDaAWpDCJxS-25" value="&lt;font style=&quot;font-size: 18px;&quot;&gt;output&lt;/font&gt;" style="text;html=1;align=center;verticalAlign=middle;resizable=0;points=[];autosize=1;strokeColor=none;fillColor=none;" vertex="1" parent="1">
          <mxGeometry x="1200" y="340" width="70" height="40" as="geometry" />
        </mxCell>
        <mxCell id="TRarGVnxiNDaAWpDCJxS-27" value="" style="shape=waypoint;sketch=0;size=6;pointerEvents=1;points=[];fillColor=none;resizable=0;rotatable=0;perimeter=centerPerimeter;snapToPoint=1;" vertex="1" parent="1">
          <mxGeometry x="950" y="350" width="20" height="20" as="geometry" />
        </mxCell>
        <mxCell id="TRarGVnxiNDaAWpDCJxS-28" value="&lt;font style=&quot;font-size: 18px;&quot;&gt;state&lt;/font&gt;" style="text;html=1;align=center;verticalAlign=middle;resizable=0;points=[];autosize=1;strokeColor=none;fillColor=none;" vertex="1" parent="1">
          <mxGeometry x="950" y="330" width="60" height="40" as="geometry" />
        </mxCell>
        <mxCell id="TRarGVnxiNDaAWpDCJxS-32" value="" style="edgeStyle=orthogonalEdgeStyle;rounded=0;orthogonalLoop=1;jettySize=auto;html=1;exitX=1;exitY=0.5;exitDx=0;exitDy=0;entryDx=0;entryDy=0;endArrow=none;endFill=0;" edge="1" parent="1" source="S6EbHysRrYr6XBWWv1BK-1" target="TRarGVnxiNDaAWpDCJxS-30">
          <mxGeometry relative="1" as="geometry">
            <mxPoint x="480" y="350" as="sourcePoint" />
            <mxPoint x="560" y="468" as="targetPoint" />
          </mxGeometry>
        </mxCell>
        <mxCell id="TRarGVnxiNDaAWpDCJxS-30" value="" style="shape=waypoint;sketch=0;size=6;pointerEvents=1;points=[];fillColor=none;resizable=0;rotatable=0;perimeter=centerPerimeter;snapToPoint=1;" vertex="1" parent="1">
          <mxGeometry x="510" y="340" width="20" height="20" as="geometry" />
        </mxCell>
        <mxCell id="TRarGVnxiNDaAWpDCJxS-37" style="edgeStyle=orthogonalEdgeStyle;rounded=0;orthogonalLoop=1;jettySize=auto;html=1;entryX=0;entryY=0.25;entryDx=0;entryDy=0;" edge="1" parent="1" source="TRarGVnxiNDaAWpDCJxS-33" target="bAxuqloQ2VQ-3lpvVDIQ-1">
          <mxGeometry relative="1" as="geometry" />
        </mxCell>
        <mxCell id="TRarGVnxiNDaAWpDCJxS-33" value="SW_up" style="text;html=1;align=center;verticalAlign=middle;resizable=0;points=[];autosize=1;strokeColor=none;fillColor=none;" vertex="1" parent="1">
          <mxGeometry x="60" y="320" width="60" height="30" as="geometry" />
        </mxCell>
        <mxCell id="TRarGVnxiNDaAWpDCJxS-36" style="edgeStyle=orthogonalEdgeStyle;rounded=0;orthogonalLoop=1;jettySize=auto;html=1;entryX=0;entryY=0.75;entryDx=0;entryDy=0;" edge="1" parent="1" source="TRarGVnxiNDaAWpDCJxS-34" target="bAxuqloQ2VQ-3lpvVDIQ-1">
          <mxGeometry relative="1" as="geometry" />
        </mxCell>
        <mxCell id="TRarGVnxiNDaAWpDCJxS-34" value="SW_dn" style="text;html=1;align=center;verticalAlign=middle;resizable=0;points=[];autosize=1;strokeColor=none;fillColor=none;" vertex="1" parent="1">
          <mxGeometry x="60" y="350" width="60" height="30" as="geometry" />
        </mxCell>
        <mxCell id="TRarGVnxiNDaAWpDCJxS-38" value="" style="rounded=0;whiteSpace=wrap;html=1;fillColor=none;dashed=1;strokeColor=#FF0000;strokeWidth=3;" vertex="1" parent="1">
          <mxGeometry x="340" y="130" width="370" height="420" as="geometry" />
        </mxCell>
        <mxCell id="TRarGVnxiNDaAWpDCJxS-39" value="&lt;font style=&quot;font-size: 18px;&quot;&gt;PWM&lt;/font&gt;" style="text;html=1;align=center;verticalAlign=middle;resizable=0;points=[];autosize=1;strokeColor=none;fillColor=none;" vertex="1" parent="1">
          <mxGeometry x="930" y="120" width="70" height="40" as="geometry" />
        </mxCell>
        <mxCell id="TRarGVnxiNDaAWpDCJxS-40" value="" style="rounded=0;whiteSpace=wrap;html=1;fillColor=none;dashed=1;strokeColor=#FF0000;strokeWidth=3;" vertex="1" parent="1">
          <mxGeometry x="770" y="130" width="410" height="420" as="geometry" />
        </mxCell>
        <mxCell id="TRarGVnxiNDaAWpDCJxS-41" value="&lt;font style=&quot;font-size: 18px;&quot;&gt;PWM 計數上下限&lt;/font&gt;" style="text;html=1;align=center;verticalAlign=middle;resizable=0;points=[];autosize=1;strokeColor=none;fillColor=none;" vertex="1" parent="1">
          <mxGeometry x="445" y="130" width="160" height="40" as="geometry" />
        </mxCell>
      </root>
    </mxGraphModel>
  </diagram>
</mxfile>
